<?xml version="1.0" standalone="no"?>
<!DOCTYPE svg PUBLIC "-//W3C//DTD SVG 20010904//EN"
 "http://www.w3.org/TR/2001/REC-SVG-20010904/DTD/svg10.dtd">
<svg version="1.0" xmlns="http://www.w3.org/2000/svg"
 width="700.000000pt" height="700.000000pt" viewBox="0 0 700.000000 700.000000"
 preserveAspectRatio="xMidYMid meet">
<metadata>
Created by potrace 1.14, written by Peter Selinger 2001-2017
</metadata>
<g transform="translate(0.000000,700.000000) scale(0.100000,-0.100000)"
fill="#000000" stroke="none">
<path d="M2568 6840 c-118 -25 -179 -46 -267 -92 -223 -119 -384 -304 -470
-543 l-22 -60 -50 1 c-452 7 -869 -332 -960 -781 -27 -131 -20 -331 17 -460 4
-17 -3 -24 -33 -39 -122 -58 -282 -197 -362 -314 -119 -176 -174 -355 -173
-567 1 -177 46 -344 130 -479 l25 -40 -24 -18 c-55 -44 -154 -147 -194 -203
-87 -121 -140 -247 -170 -405 -12 -66 -13 -280 -1 -335 4 -16 12 -50 17 -75
50 -225 230 -464 446 -594 67 -40 182 -90 233 -101 35 -8 35 -10 14 -121 -8
-42 -8 -191 0 -249 70 -500 491 -861 988 -849 62 2 142 10 178 18 l65 16 35
-43 c96 -115 181 -184 329 -266 147 -81 412 -119 599 -86 199 36 365 121 510
260 l72 71 43 -44 c142 -147 321 -243 532 -287 51 -11 257 -14 305 -5 25 4 62
11 82 14 52 8 186 58 252 95 107 58 220 153 302 253 l30 38 75 -16 c112 -25
358 -21 408 5 9 5 19 9 24 9 16 1 72 15 87 22 8 4 44 20 79 36 298 134 517
433 557 762 12 96 9 181 -11 317 l-7 41 59 18 c208 66 396 208 518 391 46 69
65 107 115 230 50 122 61 404 21 545 -31 109 -37 124 -84 218 -50 98 -172 249
-240 297 -20 14 -20 17 -7 38 99 155 150 321 154 501 3 119 -6 184 -40 296
-78 253 -247 451 -487 568 -47 23 -89 42 -95 42 -5 0 -1 30 9 67 37 131 43
315 15 438 -42 187 -125 342 -252 471 -81 81 -107 104 -177 148 -151 96 -358
156 -521 151 l-54 -2 -22 61 c-123 339 -403 578 -752 640 -102 18 -295 14
-388 -9 -183 -45 -358 -143 -483 -273 l-49 -50 -41 45 c-130 141 -320 244
-532 288 -75 16 -271 13 -357 -5z m307 -325 c190 -31 380 -181 463 -365 59
-130 55 -44 57 -1357 1 -662 0 -1203 -1 -1203 -1 0 -31 7 -66 16 -99 26 -242
21 -353 -11 -239 -71 -416 -64 -564 22 -199 116 -285 360 -199 563 10 24 37
70 59 102 51 75 53 116 6 163 -24 24 -40 32 -62 30 -17 -2 -35 -3 -42 -4 -48
-4 -164 -207 -189 -331 -52 -254 56 -520 272 -670 191 -133 434 -167 691 -98
151 40 182 46 245 43 63 -2 158 -25 188 -45 13 -8 15 -70 16 -455 l0 -445 -30
-1 c-17 0 -148 -1 -291 -2 -283 -2 -293 -4 -321 -59 -22 -42 -11 -90 27 -122
l31 -26 292 0 292 0 -1 -617 c-1 -436 -5 -632 -14 -666 -89 -367 -445 -576
-811 -477 -169 46 -322 178 -401 346 -107 230 -66 496 106 683 68 74 77 99 55
155 -11 30 -57 56 -98 56 -59 0 -175 -125 -245 -264 -52 -103 -78 -210 -82
-331 -3 -89 0 -130 18 -227 4 -19 0 -28 -11 -33 -153 -62 -383 -44 -532 42
-209 121 -328 324 -328 560 0 168 37 267 166 443 47 64 -4 160 -85 160 -22 0
-44 -10 -68 -31 -36 -32 -36 -32 -124 -26 -392 24 -672 386 -595 767 39 191
174 366 344 448 106 51 194 70 308 67 166 -5 291 -58 421 -180 260 -243 526
-371 781 -377 41 -1 65 7 91 30 25 22 32 37 32 68 2 75 -45 109 -156 113 -70
3 -209 46 -301 94 -97 50 -206 130 -301 219 -94 89 -113 103 -198 148 -156 81
-346 112 -528 85 -45 -7 -46 -6 -93 47 -122 135 -183 319 -164 497 28 266 210
480 473 557 44 13 93 17 185 17 87 -1 133 3 151 13 61 31 62 129 3 169 -29 20
-64 26 -157 29 -36 1 -39 4 -63 53 -78 166 -79 373 -2 543 66 145 190 263 338
323 59 23 77 29 145 43 32 7 167 7 205 0 156 -29 253 -87 410 -245 141 -142
169 -167 287 -257 142 -108 282 -172 383 -176 37 -1 47 3 72 30 21 24 28 43
28 72 0 56 -31 87 -105 106 -53 14 -100 35 -185 85 -14 7 -27 16 -30 19 -3 3
-23 18 -45 34 -63 46 -171 145 -275 251 -97 99 -185 169 -253 201 -32 15 -37
22 -33 44 3 14 8 40 11 58 9 52 52 151 91 210 93 141 264 254 419 278 22 3 41
7 42 8 6 5 153 -1 198 -9z m1517 -4 c162 -37 321 -153 406 -294 37 -61 76
-169 86 -234 5 -36 3 -43 -14 -48 -32 -10 -163 -100 -194 -133 -54 -58 -33
-151 40 -171 42 -11 82 1 124 39 94 83 256 141 395 141 102 1 148 -7 240 -41
170 -63 312 -209 372 -381 72 -208 23 -455 -127 -644 -96 -120 -244 -209 -484
-290 -156 -52 -180 -68 -190 -126 -10 -61 53 -122 118 -112 55 8 263 82 358
128 124 59 209 115 285 187 l63 61 58 -6 c176 -19 356 -134 450 -290 150 -247
97 -579 -123 -768 -30 -27 -31 -27 -102 -15 -222 39 -490 -31 -650 -169 -69
-59 -66 -142 6 -179 38 -20 76 -12 136 29 131 89 230 119 385 119 75 -1 116
-6 144 -17 21 -10 46 -17 56 -17 37 0 164 -74 226 -132 143 -134 213 -299 209
-489 -2 -86 -23 -184 -50 -235 -8 -16 -15 -33 -15 -37 0 -4 -17 -34 -39 -65
-116 -171 -299 -277 -500 -289 -82 -5 -87 -4 -116 21 -38 33 -58 39 -101 31
-64 -12 -101 -95 -65 -148 145 -214 162 -260 167 -438 4 -189 -50 -322 -186
-459 -85 -86 -151 -127 -260 -164 -121 -41 -290 -38 -402 6 -32 12 -31 9 -18
63 18 73 22 198 10 279 -28 186 -95 320 -220 446 -117 118 -229 174 -390 196
-150 21 -210 -10 -210 -106 0 -38 49 -90 87 -91 267 -8 442 -144 512 -398 28
-100 24 -257 -8 -351 -46 -133 -151 -272 -259 -341 -59 -38 -176 -85 -232 -95
-73 -13 -210 -8 -280 9 -225 58 -403 234 -466 462 -15 55 -17 181 -18 1398
l-2 1338 76 -6 c155 -11 244 -29 354 -69 225 -81 323 -224 382 -556 25 -143
66 -277 110 -360 43 -81 154 -188 238 -228 71 -34 191 -70 261 -76 104 -11
161 95 91 168 -24 26 -43 35 -81 40 -127 18 -243 76 -297 150 -41 57 -80 153
-95 236 -42 233 -99 424 -154 515 -145 240 -392 359 -812 390 -31 2 -61 6 -65
9 -6 3 -9 709 -3 738 0 3 140 6 309 6 325 -1 336 1 374 46 38 46 7 138 -52
153 -17 5 -166 8 -330 8 -194 0 -301 3 -303 10 -6 17 0 1098 7 1137 8 48 43
141 76 201 87 158 274 287 458 316 61 10 184 6 244 -8z"/>
</g>
</svg>
